<svg xmlns="http://www.w3.org/2000/svg" xmlns:xlink="http://www.w3.org/1999/xlink" viewBox="0 0 1200 1200" width="1200" height="1200" preserveAspectRatio="xMidYMid meet" style="width: 100%; height: 100%; transform: translate3d(0px, 0px, 0px); content-visibility: visible;"><defs><clipPath id="__lottie_element_446"><rect width="1200" height="1200" x="0" y="0"></rect></clipPath><clipPath id="__lottie_element_448"><path d="M0,0 L400,0 L400,400 L0,400z"></path></clipPath><linearGradient id="__lottie_element_457" spreadMethod="pad" gradientUnits="userSpaceOnUse" x1="346.9880065917969" y1="389.614013671875" x2="60.12200164794922" y2="402.5400085449219"><stop offset="0%" stop-color="rgb(22,21,21)"></stop><stop offset="50%" stop-color="rgb(138,138,138)"></stop><stop offset="100%" stop-color="rgb(255,255,255)"></stop><stop offset="100%" stop-color="rgb(164,216,185)"></stop><stop offset="100%" stop-color="rgb(74,177,116)"></stop></linearGradient><linearGradient id="__lottie_element_464" spreadMethod="pad" gradientUnits="userSpaceOnUse" x1="564.5809936523438" y1="429.2229919433594" x2="-239.44700622558594" y2="425.7130126953125"><stop offset="0%" stop-color="rgb(22,21,21)"></stop><stop offset="50%" stop-color="rgb(138,138,138)"></stop><stop offset="100%" stop-color="rgb(255,255,255)"></stop><stop offset="100%" stop-color="rgb(164,216,185)"></stop><stop offset="100%" stop-color="rgb(74,177,116)"></stop></linearGradient><clipPath id="__lottie_element_469"><path d="M0,0 L400,0 L400,400 L0,400z"></path></clipPath><g id="__lottie_element_472"><g transform="matrix(1.0956370830535889,0,0,1.0956370830535889,-459.57354736328125,219.10255432128906)" opacity="1" style="display: block;"><path fill="rgb(255,255,255)" fill-opacity="1" d=" M557.1300048828125,-154.8699951171875 C557.1300048828125,-154.8699951171875 602,-199.74000549316406 602,-199.74000549316406 C602,-199.74000549316406 646.8699951171875,-154.8699951171875 646.8699951171875,-154.8699951171875 C646.8699951171875,-154.8699951171875 602,-110 602,-110 C602,-110 557.1300048828125,-154.8699951171875 557.1300048828125,-154.8699951171875z"></path><g opacity="1" transform="matrix(1,0,0,1,0,0)"></g></g></g><linearGradient id="__lottie_element_478" spreadMethod="pad" gradientUnits="userSpaceOnUse" x1="-1" y1="134" x2="-1" y2="-306"><stop offset="0%" stop-color="rgb(22,21,21)"></stop><stop offset="50%" stop-color="rgb(138,138,138)"></stop><stop offset="100%" stop-color="rgb(255,255,255)"></stop><stop offset="100%" stop-color="rgb(164,216,185)"></stop><stop offset="100%" stop-color="rgb(74,177,116)"></stop></linearGradient><mask id="__lottie_element_472_1" mask-type="alpha"><use xlink:href="#__lottie_element_472"></use></mask><linearGradient id="__lottie_element_485" spreadMethod="pad" gradientUnits="userSpaceOnUse" x1="601.7360229492188" y1="202.7949981689453" x2="600.3389892578125" y2="-116.35800170898438"><stop offset="0%" stop-color="rgb(22,21,21)"></stop><stop offset="50%" stop-color="rgb(138,138,138)"></stop><stop offset="100%" stop-color="rgb(255,255,255)"></stop><stop offset="100%" stop-color="rgb(164,216,185)"></stop><stop offset="100%" stop-color="rgb(74,177,116)"></stop></linearGradient><clipPath id="__lottie_element_490"><path d="M0,0 L400,0 L400,400 L0,400z"></path></clipPath><linearGradient id="__lottie_element_499" spreadMethod="pad" gradientUnits="userSpaceOnUse" x1="601" y1="427" x2="600" y2="281"><stop offset="0%" stop-color="rgb(22,21,21)"></stop><stop offset="50%" stop-color="rgb(138,138,138)"></stop><stop offset="100%" stop-color="rgb(255,255,255)"></stop><stop offset="100%" stop-color="rgb(164,216,185)"></stop><stop offset="100%" stop-color="rgb(74,177,116)"></stop></linearGradient><linearGradient id="__lottie_element_507" spreadMethod="pad" gradientUnits="userSpaceOnUse" x1="599.8250122070312" y1="428.2460021972656" x2="599.885009765625" y2="280.2049865722656"><stop offset="0%" stop-color="rgb(22,21,21)"></stop><stop offset="50%" stop-color="rgb(138,138,138)"></stop><stop offset="100%" stop-color="rgb(255,255,255)"></stop><stop offset="100%" stop-color="rgb(164,216,185)"></stop><stop offset="100%" stop-color="rgb(74,177,116)"></stop></linearGradient><linearGradient id="__lottie_element_517" spreadMethod="pad" gradientUnits="userSpaceOnUse" x1="598" y1="83" x2="603" y2="425"><stop offset="0%" stop-color="rgb(22,21,21)"></stop><stop offset="50%" stop-color="rgb(138,138,138)"></stop><stop offset="100%" stop-color="rgb(255,255,255)"></stop><stop offset="100%" stop-color="rgb(164,216,185)"></stop><stop offset="100%" stop-color="rgb(74,177,116)"></stop></linearGradient><clipPath id="__lottie_element_519"><path d="M0,0 L400,0 L400,400 L0,400z"></path></clipPath><linearGradient id="__lottie_element_532" spreadMethod="pad" gradientUnits="userSpaceOnUse" x1="175" y1="420" x2="535" y2="708"><stop offset="0%" stop-color="rgb(22,21,21)"></stop><stop offset="50%" stop-color="rgb(138,138,138)"></stop><stop offset="100%" stop-color="rgb(255,255,255)"></stop><stop offset="100%" stop-color="rgb(164,216,185)"></stop><stop offset="100%" stop-color="rgb(74,177,116)"></stop></linearGradient><linearGradient id="__lottie_element_536" spreadMethod="pad" gradientUnits="userSpaceOnUse" x1="-10" y1="193" x2="596" y2="700"><stop offset="0%" stop-color="rgb(22,21,21)"></stop><stop offset="50%" stop-color="rgb(138,138,138)"></stop><stop offset="100%" stop-color="rgb(255,255,255)"></stop><stop offset="100%" stop-color="rgb(164,216,185)"></stop><stop offset="100%" stop-color="rgb(74,177,116)"></stop></linearGradient><clipPath id="__lottie_element_538"><path d="M0,0 L400,0 L400,400 L0,400z"></path></clipPath><g id="__lottie_element_541"><g transform="matrix(1,0,0,1,800,-200)" opacity="1" style="display: block;"><g opacity="1" transform="matrix(1,0,0,1,0,0)"><path fill="rgb(67,97,238)" fill-opacity="1" d=" M-600,464 C-600,464 -600,464 -600,464 C-710.4569702148438,464 -800,419 -800,400 C-800,400 -800,400 -800,400 C-800,387 -710.4569702148438,336 -600,336 C-600,336 -600,336 -600,336 C-489.5429992675781,336 -400,384 -400,400 C-400,400 -400,400 -400,400 C-400,417 -489.5429992675781,464 -600,464z"></path></g></g></g><linearGradient id="__lottie_element_549" spreadMethod="pad" gradientUnits="userSpaceOnUse" x1="-600" y1="319" x2="-601.5" y2="510.5"><stop offset="0%" stop-color="rgb(22,21,21)"></stop><stop offset="50%" stop-color="rgb(138,138,138)"></stop><stop offset="100%" stop-color="rgb(255,255,255)"></stop><stop offset="100%" stop-color="rgb(164,216,185)"></stop><stop offset="100%" stop-color="rgb(74,177,116)"></stop></linearGradient><g id="__lottie_element_550"><g transform="matrix(1,0,0,1,800,-200)" opacity="1" style="display: block;"><g opacity="1" transform="matrix(1,0,0,1,0,0)"><path fill="rgb(67,97,238)" fill-opacity="1" d=" M-600,464 C-600,464 -600,464 -600,464 C-710.4569702148438,464 -800,419 -800,400 C-800,400 -800,400 -800,400 C-800,387 -710.4569702148438,336 -600,336 C-600,336 -600,336 -600,336 C-489.5429992675781,336 -400,384 -400,400 C-400,400 -400,400 -400,400 C-400,417 -489.5429992675781,464 -600,464z"></path></g></g></g><g id="__lottie_element_555"><g transform="matrix(1,0,0,1,800,-200)" opacity="1" style="display: block;"><g opacity="1" transform="matrix(1,0,0,1,0,0)"><path fill="rgb(67,97,238)" fill-opacity="1" d=" M-600,464 C-600,464 -600,464 -600,464 C-710.4569702148438,464 -800,419 -800,400 C-800,400 -800,400 -800,400 C-800,387 -710.4569702148438,336 -600,336 C-600,336 -600,336 -600,336 C-489.5429992675781,336 -400,384 -400,400 C-400,400 -400,400 -400,400 C-400,417 -489.5429992675781,464 -600,464z"></path></g></g></g><mask id="__lottie_element_541_1" mask-type="alpha"><use xlink:href="#__lottie_element_541"></use></mask><linearGradient id="__lottie_element_563" spreadMethod="pad" gradientUnits="userSpaceOnUse" x1="-602" y1="495.5" x2="-600" y2="316"><stop offset="0%" stop-color="rgb(22,21,21)"></stop><stop offset="50%" stop-color="rgb(138,138,138)"></stop><stop offset="100%" stop-color="rgb(255,255,255)"></stop><stop offset="100%" stop-color="rgb(164,216,185)"></stop><stop offset="100%" stop-color="rgb(74,177,116)"></stop></linearGradient><mask id="__lottie_element_555_1" mask-type="alpha"><use xlink:href="#__lottie_element_555"></use></mask><mask id="__lottie_element_550_1" mask-type="alpha"><use xlink:href="#__lottie_element_550"></use></mask><clipPath id="__lottie_element_568"><path d="M0,0 L400,0 L400,400 L0,400z"></path></clipPath><linearGradient id="__lottie_element_577" spreadMethod="pad" gradientUnits="userSpaceOnUse" x1="197" y1="210" x2="199" y2="-202"><stop offset="0%" stop-color="rgb(22,21,21)"></stop><stop offset="50%" stop-color="rgb(138,138,138)"></stop><stop offset="100%" stop-color="rgb(255,255,255)"></stop><stop offset="100%" stop-color="rgb(164,216,185)"></stop><stop offset="100%" stop-color="rgb(74,177,116)"></stop></linearGradient><linearGradient id="__lottie_element_584" spreadMethod="pad" gradientUnits="userSpaceOnUse" x1="198" y1="215" x2="201" y2="-205"><stop offset="0%" stop-color="rgb(22,21,21)"></stop><stop offset="50%" stop-color="rgb(138,138,138)"></stop><stop offset="100%" stop-color="rgb(255,255,255)"></stop><stop offset="100%" stop-color="rgb(164,216,185)"></stop><stop offset="100%" stop-color="rgb(74,177,116)"></stop></linearGradient><clipPath id="__lottie_element_589"><path d="M0,0 L400,0 L400,400 L0,400z"></path></clipPath><linearGradient id="__lottie_element_595" spreadMethod="pad" gradientUnits="userSpaceOnUse" x1="256.0840148925781" y1="-56.70500183105469" x2="-241.47300720214844" y2="61.22100067138672"><stop offset="0%" stop-color="rgb(22,21,21)"></stop><stop offset="50%" stop-color="rgb(138,138,138)"></stop><stop offset="100%" stop-color="rgb(255,255,255)"></stop><stop offset="100%" stop-color="rgb(164,216,185)"></stop><stop offset="100%" stop-color="rgb(74,177,116)"></stop></linearGradient><linearGradient id="__lottie_element_606" spreadMethod="pad" gradientUnits="userSpaceOnUse" x1="-212.28900146484375" y1="-211.66299438476562" x2="172.11300659179688" y2="173.54600524902344"><stop offset="0%" stop-color="rgb(22,21,21)" stop-opacity="0.550000011920929"></stop><stop offset="50%" stop-color="rgb(138,138,138)" stop-opacity="0.7749999761581421"></stop><stop offset="100%" stop-color="rgb(255,255,255)" stop-opacity="1"></stop></linearGradient><linearGradient id="__lottie_element_607" spreadMethod="pad" gradientUnits="userSpaceOnUse" x1="-212.28900146484375" y1="-211.66299438476562" x2="172.11300659179688" y2="173.54600524902344"><stop offset="0%" stop-color="rgb(22,21,21)" stop-opacity="0.550000011920929"></stop><stop offset="50%" stop-color="rgb(138,138,138)" stop-opacity="0.7749999761581421"></stop><stop offset="100%" stop-color="rgb(255,255,255)" stop-opacity="1"></stop></linearGradient><linearGradient id="__lottie_element_608" spreadMethod="pad" gradientUnits="userSpaceOnUse" x1="-212.28900146484375" y1="-211.66299438476562" x2="172.11300659179688" y2="173.54600524902344"><stop offset="0%" stop-color="rgb(22,21,21)"></stop><stop offset="50%" stop-color="rgb(138,138,138)"></stop><stop offset="100%" stop-color="rgb(255,255,255)"></stop><stop offset="100%" stop-color="rgb(164,216,185)"></stop><stop offset="100%" stop-color="rgb(74,177,116)"></stop></linearGradient><linearGradient id="__lottie_element_615" spreadMethod="pad" gradientUnits="userSpaceOnUse" x1="202.55799865722656" y1="201.96099853515625" x2="-102.41999816894531" y2="-108.1760025024414"><stop offset="0%" stop-color="rgb(22,21,21)" stop-opacity="0.550000011920929"></stop><stop offset="50%" stop-color="rgb(138,138,138)" stop-opacity="0.7749999761581421"></stop><stop offset="100%" stop-color="rgb(255,255,255)" stop-opacity="1"></stop></linearGradient><linearGradient id="__lottie_element_616" spreadMethod="pad" gradientUnits="userSpaceOnUse" x1="202.55799865722656" y1="201.96099853515625" x2="-102.41999816894531" y2="-108.1760025024414"><stop offset="0%" stop-color="rgb(22,21,21)" stop-opacity="0.550000011920929"></stop><stop offset="50%" stop-color="rgb(138,138,138)" stop-opacity="0.7749999761581421"></stop><stop offset="100%" stop-color="rgb(255,255,255)" stop-opacity="1"></stop></linearGradient><linearGradient id="__lottie_element_617" spreadMethod="pad" gradientUnits="userSpaceOnUse" x1="202.55799865722656" y1="201.96099853515625" x2="-102.41999816894531" y2="-108.1760025024414"><stop offset="0%" stop-color="rgb(22,21,21)"></stop><stop offset="50%" stop-color="rgb(138,138,138)"></stop><stop offset="100%" stop-color="rgb(255,255,255)"></stop><stop offset="100%" stop-color="rgb(164,216,185)"></stop><stop offset="100%" stop-color="rgb(74,177,116)"></stop></linearGradient><clipPath id="__lottie_element_619"><path d="M0,0 L400,0 L400,400 L0,400z"></path></clipPath><linearGradient id="__lottie_element_625" spreadMethod="pad" gradientUnits="userSpaceOnUse" x1="19.259000778198242" y1="25.926000595092773" x2="-156.29600524902344" y2="-182.2220001220703"><stop offset="0%" stop-color="rgb(22,21,21)"></stop><stop offset="50%" stop-color="rgb(138,138,138)"></stop><stop offset="100%" stop-color="rgb(255,255,255)"></stop><stop offset="100%" stop-color="rgb(164,216,185)"></stop><stop offset="100%" stop-color="rgb(74,177,116)"></stop></linearGradient><linearGradient id="__lottie_element_632" spreadMethod="pad" gradientUnits="userSpaceOnUse" x1="-24.444000244140625" y1="-20" x2="160" y2="151.11099243164062"><stop offset="0%" stop-color="rgb(22,21,21)"></stop><stop offset="50%" stop-color="rgb(138,138,138)"></stop><stop offset="100%" stop-color="rgb(255,255,255)"></stop><stop offset="100%" stop-color="rgb(164,216,185)"></stop><stop offset="100%" stop-color="rgb(74,177,116)"></stop></linearGradient><linearGradient id="__lottie_element_636" spreadMethod="pad" gradientUnits="userSpaceOnUse" x1="4.60699987411499" y1="-7.677999973297119" x2="-151.85000610351562" y2="159.7100067138672"><stop offset="0%" stop-color="rgb(22,21,21)"></stop><stop offset="50%" stop-color="rgb(138,138,138)"></stop><stop offset="100%" stop-color="rgb(255,255,255)"></stop><stop offset="100%" stop-color="rgb(164,216,185)"></stop><stop offset="100%" stop-color="rgb(74,177,116)"></stop></linearGradient><clipPath id="__lottie_element_641"><path d="M0,0 L400,0 L400,400 L0,400z"></path></clipPath><linearGradient id="__lottie_element_659" spreadMethod="pad" gradientUnits="userSpaceOnUse" x1="202" y1="-400" x2="198" y2="-178"><stop offset="0%" stop-color="rgb(22,21,21)"></stop><stop offset="50%" stop-color="rgb(138,138,138)"></stop><stop offset="100%" stop-color="rgb(255,255,255)"></stop><stop offset="100%" stop-color="rgb(164,216,185)"></stop><stop offset="100%" stop-color="rgb(74,177,116)"></stop></linearGradient><linearGradient id="__lottie_element_663" spreadMethod="pad" gradientUnits="userSpaceOnUse" x1="204" y1="-729" x2="207" y2="-379"><stop offset="0%" stop-color="rgb(22,21,21)"></stop><stop offset="50%" stop-color="rgb(138,138,138)"></stop><stop offset="100%" stop-color="rgb(255,255,255)"></stop><stop offset="100%" stop-color="rgb(164,216,185)"></stop><stop offset="100%" stop-color="rgb(74,177,116)"></stop></linearGradient></defs><g clip-path="url(#__lottie_element_446)"><g transform="matrix(1,0,0,1,0,0)" opacity="1" style="display: block;"><rect width="1200" height="1200" fill="#161515"></rect></g><g clip-path="url(#__lottie_element_641)" transform="matrix(1,0,0,1,400,0)" opacity="1" style="display: block;"><g transform="matrix(1,0,0,1,0,600)" opacity="1" style="display: block;"><g opacity="1" transform="matrix(1,0,0,1,0,0)"><path fill="url(#__lottie_element_663)" fill-opacity="1" d=" M400,-200 C400,-200 0,-200 0,-200 C0,-200 0,-600 0,-600 C0,-600 400,-600 400,-600 C400,-600 400,-200 400,-200z"></path></g></g><g transform="matrix(1.0700000524520874,0,0,1.0700000524520874,-14.000015258789062,627.5)" opacity="1" style="display: block;"><g opacity="1" transform="matrix(1,0,0,1,0,0)"><path fill="url(#__lottie_element_659)" fill-opacity="1" d=" M400,-200 C400,-200 0,-200 0,-200 C0,-200 0,-400 0,-400 C0,-400 400,-400 400,-400 C400,-400 400,-200 400,-200z"></path></g></g><g transform="matrix(0.9955521821975708,0.09421179443597794,-0.09421179443597794,0.9955521821975708,400,200)" opacity="1" style="display: block;"><g opacity="1" transform="matrix(1,0,0,1,0,0)"><path fill="rgb(22,21,21)" fill-opacity="1" d=" M200,0 C200,110.45700073242188 110.45700073242188,200 0,200 C-110.45700073242188,200 -200,110.45700073242188 -200,0 C-101,0 33,0 200,0z"></path></g></g><g transform="matrix(-0.9955521821975708,-0.09421179443597794,0.09421179443597794,-0.9955521821975708,0,200)" opacity="1" style="display: block;"><g opacity="1" transform="matrix(1,0,0,1,0,0)"><path fill="rgb(22,21,21)" fill-opacity="1" d=" M200,0 C200,110.45700073242188 110.45700073242188,200 0,200 C-110.45700073242188,200 -200,110.45700073242188 -200,0 C-101,0 33,0 200,0z"></path></g></g><g style="display: none;" transform="matrix(1,0,0,1,400,200)" opacity="1"><g opacity="1" transform="matrix(1,0,0,1,0,0)"><path fill="rgb(22,21,21)" fill-opacity="1" d=" M200,0 C200,110.45700073242188 110.45700073242188,200 0,200 C-110.45700073242188,200 -200,110.45700073242188 -200,0 C-101,0 33,0 200,0z"></path></g></g><g style="display: none;" transform="matrix(-1,0,0,-1,0,200)" opacity="1"><g opacity="1" transform="matrix(1,0,0,1,0,0)"><path fill="rgb(22,21,21)" fill-opacity="1" d=" M200,0 C200,110.45700073242188 110.45700073242188,200 0,200 C-110.45700073242188,200 -200,110.45700073242188 -200,0 C-101,0 33,0 200,0z"></path></g></g></g><g clip-path="url(#__lottie_element_619)" transform="matrix(1,0,0,1,400,400)" opacity="1" style="display: block;"><g transform="matrix(1,0,0,1,-400,600)" opacity="1" style="display: block;"><g opacity="1" transform="matrix(1,0,0,1,0,0)"><path fill="rgb(22,21,21)" fill-opacity="1" d=" M800,-200 C800,-200 400,-200 400,-200 C400,-200 400,-600 400,-600 C400,-600 800,-600 800,-600 C800,-600 800,-200 800,-200z"></path></g></g><g transform="matrix(0.6699660420417786,0,0,0.6699660420417786,400,0)" opacity="1" style="display: block;"><g opacity="1" transform="matrix(1,0,0,1,0,0)"><path fill="url(#__lottie_element_636)" fill-opacity="1" d=" M0,-200 C110.37999725341797,-200 200,-110.37999725341797 200,0 C200,110.37999725341797 110.37999725341797,200 0,200 C-110.37999725341797,200 -200,110.37999725341797 -200,0 C-200,-110.37999725341797 -110.37999725341797,-200 0,-200z"></path></g></g><g transform="matrix(1.3300338983535767,0,0,1.3300338983535767,0,0)" opacity="1" style="display: block;"><g opacity="1" transform="matrix(1,0,0,1,0,0)"><path fill="url(#__lottie_element_632)" fill-opacity="1" d=" M0,-200 C110.37999725341797,-200 200,-110.37999725341797 200,0 C200,110.37999725341797 110.37999725341797,200 0,200 C-110.37999725341797,200 -200,110.37999725341797 -200,0 C-200,-110.37999725341797 -110.37999725341797,-200 0,-200z"></path></g></g><g transform="matrix(0.6699660420417786,0,0,0.6699660420417786,0,400)" opacity="1" style="display: block;"><g opacity="1" transform="matrix(1,0,0,1,0,0)"><path fill="rgb(255,255,255)" fill-opacity="1" d=" M0,-200 C110.37999725341797,-200 200,-110.37999725341797 200,0 C200,110.37999725341797 110.37999725341797,200 0,200 C-110.37999725341797,200 -200,110.37999725341797 -200,0 C-200,-110.37999725341797 -110.37999725341797,-200 0,-200z"></path></g></g><g transform="matrix(1.3300338983535767,0,0,1.3300338983535767,400,400)" opacity="1" style="display: block;"><g opacity="1" transform="matrix(1,0,0,1,0,0)"><path fill="url(#__lottie_element_625)" fill-opacity="1" d=" M0,-200 C110.37999725341797,-200 200,-110.37999725341797 200,0 C200,110.37999725341797 110.37999725341797,200 0,200 C-110.37999725341797,200 -200,110.37999725341797 -200,0 C-200,-110.37999725341797 -110.37999725341797,-200 0,-200z"></path></g></g></g><g clip-path="url(#__lottie_element_589)" transform="matrix(1,0,0,1,0,800)" opacity="1" style="display: block;"><g transform="matrix(0.8796335458755493,-0.09731286764144897,0.09731286764144897,0.8796335458755493,4.610711574554443,43.535858154296875)" opacity="1" style="display: block;"><g opacity="1" transform="matrix(1,0,0,1,0,0)"><path fill="url(#__lottie_element_615)" fill-opacity="1" d=" M200,-200 C200,-200 200,200 200,200 C200,200 -200,200 -200,200 C-200,200 -200,-200 -200,-200 C-200,-200 200,-200 200,-200z"></path><path fill="url(#__lottie_element_616)" fill-opacity="1" d=" M200,-200 C200,-200 200,200 200,200 C200,200 -200,200 -200,200 C-200,200 -200,-200 -200,-200 C-200,-200 200,-200 200,-200z"></path><path fill="url(#__lottie_element_617)" fill-opacity="1" d=" M200,-200 C200,-200 200,200 200,200 C200,200 -200,200 -200,200 C-200,200 -200,-200 -200,-200 C-200,-200 200,-200 200,-200z"></path></g></g><g transform="matrix(0.8473306894302368,-0.09373923391103745,0.09373923391103745,0.8473306894302368,350.7182922363281,11.78602409362793)" opacity="1" style="display: block;"><g opacity="1" transform="matrix(1,0,0,1,0,0)"><path fill="rgb(22,21,21)" fill-opacity="1" d=" M200,-200 C200,-200 200,200 200,200 C200,200 -200,200 -200,200 C-200,200 -200,-200 -200,-200 C-200,-200 200,-200 200,-200z"></path><path fill="rgb(22,21,21)" fill-opacity="1" d=" M200,-200 C200,-200 200,200 200,200 C200,200 -200,200 -200,200 C-200,200 -200,-200 -200,-200 C-200,-200 200,-200 200,-200z"></path><path fill="rgb(22,21,21)" fill-opacity="1" d=" M200,-200 C200,-200 200,200 200,200 C200,200 -200,200 -200,200 C-200,200 -200,-200 -200,-200 C-200,-200 200,-200 200,-200z"></path></g></g><g transform="matrix(0.8299367427825928,-0.09181496500968933,0.09181496500968933,0.8299367427825928,384.350341796875,347.6243591308594)" opacity="1" style="display: block;"><g opacity="1" transform="matrix(1,0,0,1,0,0)"><path fill="url(#__lottie_element_606)" fill-opacity="1" d=" M200,-200 C200,-200 200,200 200,200 C200,200 -200,200 -200,200 C-200,200 -200,-200 -200,-200 C-200,-200 200,-200 200,-200z"></path><path fill="url(#__lottie_element_607)" fill-opacity="1" d=" M200,-200 C200,-200 200,200 200,200 C200,200 -200,200 -200,200 C-200,200 -200,-200 -200,-200 C-200,-200 200,-200 200,-200z"></path><path fill="url(#__lottie_element_608)" fill-opacity="1" d=" M200,-200 C200,-200 200,200 200,200 C200,200 -200,200 -200,200 C-200,200 -200,-200 -200,-200 C-200,-200 200,-200 200,-200z"></path></g></g><g transform="matrix(0.9318152070045471,-0.10308566689491272,0.10308566689491272,0.9318152070045471,34.25408935546875,406.98016357421875)" opacity="1" style="display: block;"><g opacity="1" transform="matrix(1,0,0,1,0,0)"><path fill="rgb(22,21,21)" fill-opacity="1" d=" M200,-200 C200,-200 200,200 200,200 C200,200 -200,200 -200,200 C-200,200 -200,-200 -200,-200 C-200,-200 200,-200 200,-200z"></path><path fill="rgb(22,21,21)" fill-opacity="1" d=" M200,-200 C200,-200 200,200 200,200 C200,200 -200,200 -200,200 C-200,200 -200,-200 -200,-200 C-200,-200 200,-200 200,-200z"></path><path fill="rgb(22,21,21)" fill-opacity="1" d=" M200,-200 C200,-200 200,200 200,200 C200,200 -200,200 -200,200 C-200,200 -200,-200 -200,-200 C-200,-200 200,-200 200,-200z"></path></g></g><g transform="matrix(0.0534362830221653,-0.251397967338562,0.251397967338562,0.0534362830221653,200,200)" opacity="1" style="display: block;"><g opacity="1" transform="matrix(1,0,0,1,0,0)"><path fill="rgb(22,21,21)" fill-opacity="1" d=" M0,-200 C110.37999725341797,-200 200,-110.37999725341797 200,0 C200,110.37999725341797 110.37999725341797,200 0,200 C-110.37999725341797,200 -200,110.37999725341797 -200,0 C-200,-110.37999725341797 -110.37999725341797,-200 0,-200z"></path></g></g><g style="display: none;" transform="matrix(0.08117625117301941,-0.3819042444229126,0.3819042444229126,0.08117625117301941,200,200)" opacity="1"><g opacity="1" transform="matrix(1,0,0,1,0,0)"><path fill="url(#__lottie_element_595)" fill-opacity="1" d=" M0,-200 C110.37999725341797,-200 200,-110.37999725341797 200,0 C200,110.37999725341797 110.37999725341797,200 0,200 C-110.37999725341797,200 -200,110.37999725341797 -200,0 C-200,-110.37999725341797 -110.37999725341797,-200 0,-200z"></path></g></g></g><g clip-path="url(#__lottie_element_568)" transform="matrix(1,0,0,1,800,400)" opacity="1" style="display: block;"><g transform="matrix(1,0,0,1,0,200)" opacity="1" style="display: block;"><g opacity="1" transform="matrix(1,0,0,1,0,0)"><path fill="rgb(22,21,21)" fill-opacity="1" d=" M400,200 C400,200 0,200 0,200 C0,200 0,-200 0,-200 C0,-200 400,-200 400,-200 C400,-200 400,200 400,200z"></path></g></g><g transform="matrix(1.0130366086959839,0,0,1.0130366086959839,-2.6073150634765625,200)" opacity="1" style="display: block;"><g opacity="1" transform="matrix(1,0,0,1,0,0)"><path fill="url(#__lottie_element_584)" fill-opacity="1" d=" M200,200 C200,200 200,200 200,200 C89.54299926757812,200 0,110.45700073242188 0,0 C0,0 0,0 0,0 C0,-110.45700073242188 89.54299926757812,-200 200,-200 C200,-200 200,-200 200,-200 C310.4570007324219,-200 400,-110.45700073242188 400,0 C400,0 400,0 400,0 C400,110.45700073242188 310.4570007324219,200 200,200z"></path></g></g><g transform="matrix(0.24311047792434692,0,0,0.24311047792434692,151.37789916992188,200)" opacity="1" style="display: block;"><g opacity="1" transform="matrix(1,0,0,1,0,0)"><path fill="rgb(22,21,21)" fill-opacity="1" d=" M200,200 C200,200 200,200 200,200 C89.54299926757812,200 0,110.45700073242188 0,0 C0,0 0,0 0,0 C0,-110.45700073242188 89.54299926757812,-200 200,-200 C200,-200 200,-200 200,-200 C310.4570007324219,-200 400,-110.45700073242188 400,0 C400,0 400,0 400,0 C400,110.45700073242188 310.4570007324219,200 200,200z"></path></g></g><g transform="matrix(0.006518342532217503,0,0,0.006518342532217503,198.6963348388672,200)" opacity="1" style="display: block;"><g opacity="1" transform="matrix(1,0,0,1,0,0)"><path fill="url(#__lottie_element_577)" fill-opacity="1" d=" M200,200 C200,200 200,200 200,200 C89.54299926757812,200 0,110.45700073242188 0,0 C0,0 0,0 0,0 C0,-110.45700073242188 89.54299926757812,-200 200,-200 C200,-200 200,-200 200,-200 C310.4570007324219,-200 400,-110.45700073242188 400,0 C400,0 400,0 400,0 C400,110.45700073242188 310.4570007324219,200 200,200z"></path></g></g><g transform="matrix(0,0,0,0,200,200)" opacity="1" style="display: block;"><g opacity="1" transform="matrix(1,0,0,1,0,0)"><path fill="rgb(22,21,21)" fill-opacity="1" d=" M200,200 C200,200 200,200 200,200 C89.54299926757812,200 0,110.45700073242188 0,0 C0,0 0,0 0,0 C0,-110.45700073242188 89.54299926757812,-200 200,-200 C200,-200 200,-200 200,-200 C310.4570007324219,-200 400,-110.45700073242188 400,0 C400,0 400,0 400,0 C400,110.45700073242188 310.4570007324219,200 200,200z"></path></g></g></g><g clip-path="url(#__lottie_element_538)" transform="matrix(1,0,0,1,400,800)" opacity="1" style="display: block;"><g transform="matrix(1,0,0,1,800,-200)" opacity="1" style="display: block;"><g opacity="1" transform="matrix(1,0,0,1,0,0)"><path fill="rgb(22,21,21)" fill-opacity="1" d=" M-400,600 C-400,600 -800,600 -800,600 C-800,600 -800,200 -800,200 C-800,200 -400,200 -400,200 C-400,200 -400,600 -400,600z"></path></g></g><g transform="matrix(1,0,0,1,800,-200)" opacity="1" style="display: block;"><g opacity="1" transform="matrix(1,0,0,1,0,0)"><path fill="url(#__lottie_element_563)" fill-opacity="1" d=" M-600,464 C-600,464 -600,464 -600,464 C-710.4569702148438,464 -800,419 -800,400 C-800,400 -800,400 -800,400 C-800,387 -710.4569702148438,336 -600,336 C-600,336 -600,336 -600,336 C-489.5429992675781,336 -400,384 -400,400 C-400,400 -400,400 -400,400 C-400,417 -489.5429992675781,464 -600,464z"></path></g></g><g mask="url(#__lottie_element_550_1)" style="display: block;"><g transform="matrix(1,0,0,1,795.8359985351562,-200)" opacity="1"><g opacity="1" transform="matrix(1,0,0,1,0,0)"><path fill="url(#__lottie_element_549)" fill-opacity="1" d=" M-600,464 C-600,464 -600,464 -600,464 C-635.3460083007812,464 -664,435.34600830078125 -664,400 C-664,400 -664,400 -664,400 C-664,364.65399169921875 -635.3460083007812,336 -600,336 C-600,336 -600,336 -600,336 C-564.6539916992188,336 -536,364.65399169921875 -536,400 C-536,400 -536,400 -536,400 C-536,435.34600830078125 -564.6539916992188,464 -600,464z"></path></g></g></g><g mask="url(#__lottie_element_555_1)" style="display: block;"><g transform="matrix(1,0,0,1,795.5079956054688,-200)" opacity="1"><g opacity="1" transform="matrix(1,0,0,1,0,0)"><path fill="rgb(22,21,21)" fill-opacity="1" d=" M-600,434 C-600,434 -600,434 -600,434 C-618.7780151367188,434 -634,418.77801513671875 -634,400 C-634,400 -634,400 -634,400 C-634,381.22198486328125 -618.7780151367188,366 -600,366 C-600,366 -600,366 -600,366 C-581.2219848632812,366 -566,381.22198486328125 -566,400 C-566,400 -566,400 -566,400 C-566,418.77801513671875 -581.2219848632812,434 -600,434z"></path></g></g></g><g mask="url(#__lottie_element_541_1)" style="display: block;"><g transform="matrix(1,0,0,1,795.6791381835938,-200)" opacity="1"><g opacity="1" transform="matrix(1,0,0,1,0,0)"><path fill="rgb(255,255,255)" fill-opacity="1" d=" M-586,388 C-586,388 -586,388 -586,388 C-592.6270141601562,388 -598,382.62701416015625 -598,376 C-598,376 -598,376 -598,376 C-598,369.37298583984375 -592.6270141601562,364 -586,364 C-586,364 -586,364 -586,364 C-579.3729858398438,364 -574,369.37298583984375 -574,376 C-574,376 -574,376 -574,376 C-574,382.62701416015625 -579.3729858398438,388 -586,388z"></path></g></g></g></g><g clip-path="url(#__lottie_element_519)" transform="matrix(1,0,0,1,0,400.25)" opacity="1" style="display: block;"><g transform="matrix(1,0,0,1,0,-200)" opacity="1" style="display: block;"><g opacity="1" transform="matrix(1,0,0,1,0,0)"><path fill="url(#__lottie_element_536)" fill-opacity="1" d=" M400,600 C400,600 0,600 0,600 C0,600 0,200 0,200 C0,200 400,200 400,200 C400,200 400,600 400,600z"></path></g></g><g transform="matrix(1,0,0,1,0,-200)" opacity="1" style="display: block;"><g opacity="1" transform="matrix(1,0,0,1,0,0)"><path fill="url(#__lottie_element_532)" fill-opacity="1" d=" M400,200 C400,200 0,600 0,600 C0,600 400,600 400,600 C400,600 400,200 400,200"></path></g></g><g transform="matrix(1,0,0,1,0,-200)" opacity="1" style="display: block;"><g opacity="1" transform="matrix(1,0,0,1,0,0)"><path fill="rgb(22,21,21)" fill-opacity="1" d=" M219.25547790527344,600 C219.25547790527344,600 0,600 0,600 C0,600 0,380.79241943359375 0,380.79241943359375 C0,380.79241943359375 219.25547790527344,380.79241943359375 219.25547790527344,380.79241943359375 C219.25547790527344,380.79241943359375 219.25547790527344,600 219.25547790527344,600z"></path></g></g><g transform="matrix(0.7799999713897705,0,0,0.7799999713897705,31.01385498046875,369.3733215332031)" opacity="1" style="display: block;"><g opacity="1" transform="matrix(1,0,0,1,0,0)"><path stroke-linecap="round" stroke-linejoin="miter" fill-opacity="0" stroke-miterlimit="4" stroke="rgb(255,255,255)" stroke-opacity="1" stroke-width="75" d=" M97.60900115966797,-96.2249984741211 C96.89700317382812,-95.49500274658203 96.18399810791016,-94.76499938964844 95.47000122070312,-94.03399658203125"></path></g></g></g><g clip-path="url(#__lottie_element_490)" transform="matrix(1,0,0,1,800,800)" opacity="1" style="display: block;"><g transform="matrix(1,0,0,1,-400,-200)" opacity="1" style="display: block;"><g opacity="1" transform="matrix(1,0,0,1,0,0)"><path fill="url(#__lottie_element_517)" fill-opacity="1" d=" M800,600 C800,600 400,600 400,600 C400,600 400,200 400,200 C400,200 800,200 800,200 C800,200 800,600 800,600z"></path></g></g><g transform="matrix(1,0,0,1,-400,-200)" opacity="1" style="display: block;"><g opacity="1" transform="matrix(1,0,0,1,0,0)"><path fill="rgb(22,21,21)" fill-opacity="1" d=" M800,600 C800,600 400,600 400,600 C400,600 400,400 400,400 C400,400 800,400 800,400 C800,400 800,600 800,600z"></path></g></g><g transform="matrix(0.999514102935791,-0.031169839203357697,0.031169839203357697,0.999514102935791,-412.21966552734375,-182.87783813476562)" opacity="1" style="display: block;"><g opacity="1" transform="matrix(1,0,0,1,0,0)"><path fill="rgb(22,21,21)" fill-opacity="1" d=" M685.2389526367188,400 C685.2389526367188,400 511,400 511,400 C511,400 511,311 511,311 C511,311 685.2389526367188,311 685.2389526367188,311 C685.2389526367188,311 685.2389526367188,400 685.2389526367188,400z"></path></g></g><g transform="matrix(0.999514102935791,-0.031169839203357697,0.031169839203357697,0.999514102935791,-409.3590087890625,-89.24786376953125)" opacity="1" style="display: block;"><g opacity="1" transform="matrix(1,0,0,1,0,0)"><path fill="url(#__lottie_element_507)" fill-opacity="1" d=" M689,400 C689,400 514.5504760742188,399.9997253417969 514.5504760742188,399.9997253417969 C514.5504760742188,399.9997253417969 514.5504760742188,310.9997253417969 514.5504760742188,310.9997253417969 C514.5504760742188,310.9997253417969 689,311 689,311 C689,311 689,400 689,400z"></path></g></g><g transform="matrix(1,0,0,1,-104,-199)" opacity="1" style="display: block;"><g opacity="1" transform="matrix(1,0,0,1,0,0)"><path fill="rgb(22,21,21)" fill-opacity="1" d=" M689,400 C689,400 511,400 511,400 C511,400 511,311 511,311 C511,311 689,311 689,311 C689,311 689,400 689,400z"></path></g></g><g transform="matrix(1,0,0,1,-699,-110.875)" opacity="1" style="display: block;"><g opacity="1" transform="matrix(1,0,0,1,0,0)"><path fill="url(#__lottie_element_499)" fill-opacity="1" d=" M689,400 C689,400 511,400 511,400 C511,400 511,311 511,311 C511,311 689,311 689,311 C689,311 689,400 689,400z"></path></g></g><g transform="matrix(1,0,0,1,200,200)" opacity="1" style="display: block;"></g></g><g clip-path="url(#__lottie_element_469)" transform="matrix(1,0,0,1,800,0)" opacity="1" style="display: block;"><g transform="matrix(1,0,0,1,0,0)" opacity="1" style="display: block;"><rect width="400" height="400" fill="#161515"></rect></g><g transform="matrix(0.9757229089736938,0,0,0.9757229089736938,-384.9580078125,204.8554229736328)" opacity="1" style="display: block;"><g opacity="1" transform="matrix(1,0,0,1,0,0)"><path fill="url(#__lottie_element_485)" fill-opacity="1" d=" M799,0 C799,110.45700073242188 709.4569702148438,200 599,200 C488.5429992675781,200 399,110.45700073242188 399,0 C399,0 799,0 799,0z"></path></g></g><g transform="matrix(0.9661592245101929,0,0,0.9661592245101929,-379.195556640625,204.86001586914062)" opacity="1" style="display: block;"><g opacity="1" transform="matrix(1,0,0,1,0,0)"><path fill="rgb(255,255,255)" fill-opacity="1" d=" M710,-110 C710,-49.249000549316406 660.7509765625,0 600,0 C539.2490234375,0 490,-49.249000549316406 490,-110 C490,-110 710,-110 710,-110z"></path></g></g><g mask="url(#__lottie_element_472_1)" style="display: block;"><g transform="matrix(1,0,0,1,200,200)" opacity="1"><g opacity="1" transform="matrix(1,0,0,1,-13.5,-15.5)"><path fill="url(#__lottie_element_478)" fill-opacity="1" d=" M229.5,-220.5 C229.5,-220.5 229.5,220.5 229.5,220.5 C229.5,220.5 -229.5,220.5 -229.5,220.5 C-229.5,220.5 -229.5,-220.5 -229.5,-220.5 C-229.5,-220.5 229.5,-220.5 229.5,-220.5z"></path></g></g></g></g><g clip-path="url(#__lottie_element_448)" transform="matrix(1,0,0,1,0,0)" opacity="1" style="display: block;"><g transform="matrix(1.0499999523162842,0,0,1.0499999523162842,-9.999984741210938,-219.99996948242188)" opacity="1" style="display: block;"><g opacity="1" transform="matrix(1,0,0,1,0,0)"><path fill="rgb(22,21,21)" fill-opacity="1" d=" M400,600 C400,600 0,600 0,600 C0,600 0,200 0,200 C0,200 400,200 400,200 C400,200 400,600 400,600z"></path></g></g><g transform="matrix(0.9956188797950745,0.09350406378507614,-0.09350406378507614,0.9956188797950745,38.28004455566406,-216.9951171875)" opacity="1" style="display: block;"><g opacity="1" transform="matrix(1,0,0,1,0,0)"><path fill="url(#__lottie_element_464)" fill-opacity="1" d=" M542,548 C542,548 204.5,547.5 204.5,547.5 C123.03800201416016,547.5 57,481.4620056152344 57,400 C57,400 57,400 57,400 C57,318.5379943847656 123.03800201416016,252.5 204.5,252.5 C204.5,252.5 542,253 542,253 C542,253 542,548 542,548z"></path></g></g><g transform="matrix(1.0014903545379639,0,0,1.0014903545379639,-0.298065185546875,-200.59613037109375)" opacity="1" style="display: block;"><g opacity="1" transform="matrix(1,0,0,1,0,0)"><path fill="rgb(22,21,21)" fill-opacity="1" d=" M200,511 C200,511 200,511 200,511 C138.6959991455078,511 89,461.3039855957031 89,400 C89,400 89,400 89,400 C89,338.6960144042969 138.6959991455078,289 200,289 C200,289 200,289 200,289 C261.3039855957031,289 311,338.6960144042969 311,400 C311,400 311,400 311,400 C311,461.3039855957031 261.3039855957031,511 200,511z"></path></g></g><g transform="matrix(0.9956188797950745,-0.09350406378507614,0.09350406378507614,0.9956188797950745,-36.52540588378906,-179.5467529296875)" opacity="1" style="display: block;"><g opacity="1" transform="matrix(1,0,0,1,0,0)"><path fill="url(#__lottie_element_457)" fill-opacity="1" d=" M200,278 C200,278 200,278 200,278 C267.3789978027344,278 322,332.6210021972656 322,400 C322,400 322,400 322,400 C322,467.3789978027344 267.3789978027344,522 200,522 C200,522 200,522 200,522"></path></g></g><g transform="matrix(1,0,0,1,5.0854949951171875,-204.2830810546875)" opacity="1" style="display: block;"><g opacity="1" transform="matrix(1,0,0,1,0,0)"><path fill="rgb(255,255,255)" fill-opacity="1" d=" M147,380 C147,380 147,380 147,380 C131.53599548339844,380 119,367.4639892578125 119,352 C119,352 119,352 119,352 C119,336.5360107421875 131.53599548339844,324 147,324 C147,324 147,324 147,324 C162.46400451660156,324 175,336.5360107421875 175,352 C175,352 175,352 175,352 C175,367.4639892578125 162.46400451660156,380 147,380z"></path></g></g></g></g></svg>
