<svg xmlns="http://www.w3.org/2000/svg" xmlns:xlink="http://www.w3.org/1999/xlink" viewBox="0 0 1000 1000" width="359" height="359" preserveAspectRatio="xMidYMid meet" style="width: 100%; height: 100%; transform: translate3d(0px, 0px, 0px); content-visibility: visible; background-color: transparent;"><defs><clipPath id="__lottie_element_2"><rect width="1000" height="1000" x="0" y="0"/></clipPath><linearGradient id="__lottie_element_6" spreadMethod="pad" gradientUnits="userSpaceOnUse" x1="-229.67999267578125" y1="34.33399963378906" x2="-169.18600463867188" y2="589.9619750976562"><stop offset="0%" stop-color="rgb(145,145,145)"/><stop offset="50%" stop-color="rgb(107,107,107)"/><stop offset="100%" stop-color="rgb(22,22,22)"/></linearGradient><linearGradient id="__lottie_element_7" spreadMethod="pad" gradientUnits="userSpaceOnUse" x1="-229.67999267578125" y1="34.33399963378906" x2="-169.18600463867188" y2="589.9619750976562"><stop offset="0%" stop-color="rgb(145,145,145)"/><stop offset="50%" stop-color="rgb(107,107,107)"/><stop offset="100%" stop-color="rgb(22,22,22)"/></linearGradient><linearGradient id="__lottie_element_8" spreadMethod="pad" gradientUnits="userSpaceOnUse" x1="-229.67999267578125" y1="34.33399963378906" x2="-169.18600463867188" y2="589.9619750976562"><stop offset="0%" stop-color="rgb(145,145,145)"/><stop offset="50%" stop-color="rgb(107,107,107)"/><stop offset="100%" stop-color="rgb(22,22,22)"/></linearGradient><linearGradient id="__lottie_element_9" spreadMethod="pad" gradientUnits="userSpaceOnUse" x1="-229.67999267578125" y1="34.33399963378906" x2="-169.18600463867188" y2="589.9619750976562"><stop offset="0%" stop-color="rgb(145,145,145)"/><stop offset="50%" stop-color="rgb(107,107,107)"/><stop offset="100%" stop-color="rgb(22,22,22)"/></linearGradient><linearGradient id="__lottie_element_10" spreadMethod="pad" gradientUnits="userSpaceOnUse" x1="-229.67999267578125" y1="34.33399963378906" x2="-169.18600463867188" y2="589.9619750976562"><stop offset="0%" stop-color="rgb(145,145,145)"/><stop offset="50%" stop-color="rgb(107,107,107)"/><stop offset="100%" stop-color="rgb(22,22,22)"/></linearGradient><linearGradient id="__lottie_element_11" spreadMethod="pad" gradientUnits="userSpaceOnUse" x1="-229.67999267578125" y1="34.33399963378906" x2="-169.18600463867188" y2="589.9619750976562"><stop offset="0%" stop-color="rgb(145,145,145)"/><stop offset="50%" stop-color="rgb(107,107,107)"/><stop offset="100%" stop-color="rgb(22,22,22)"/></linearGradient><linearGradient id="__lottie_element_12" spreadMethod="pad" gradientUnits="userSpaceOnUse" x1="-229.67999267578125" y1="34.33399963378906" x2="-169.18600463867188" y2="589.9619750976562"><stop offset="0%" stop-color="rgb(145,145,145)"/><stop offset="50%" stop-color="rgb(107,107,107)"/><stop offset="100%" stop-color="rgb(22,22,22)"/></linearGradient><linearGradient id="__lottie_element_13" spreadMethod="pad" gradientUnits="userSpaceOnUse" x1="-229.67999267578125" y1="34.33399963378906" x2="-169.18600463867188" y2="589.9619750976562"><stop offset="0%" stop-color="rgb(145,145,145)"/><stop offset="50%" stop-color="rgb(107,107,107)"/><stop offset="100%" stop-color="rgb(22,22,22)"/></linearGradient><linearGradient id="__lottie_element_14" spreadMethod="pad" gradientUnits="userSpaceOnUse" x1="-229.67999267578125" y1="34.33399963378906" x2="-169.18600463867188" y2="589.9619750976562"><stop offset="0%" stop-color="rgb(145,145,145)"/><stop offset="50%" stop-color="rgb(107,107,107)"/><stop offset="100%" stop-color="rgb(22,22,22)"/></linearGradient><linearGradient id="__lottie_element_15" spreadMethod="pad" gradientUnits="userSpaceOnUse" x1="-229.67999267578125" y1="34.33399963378906" x2="-169.18600463867188" y2="589.9619750976562"><stop offset="0%" stop-color="rgb(145,145,145)"/><stop offset="50%" stop-color="rgb(107,107,107)"/><stop offset="100%" stop-color="rgb(22,22,22)"/></linearGradient><linearGradient id="__lottie_element_16" spreadMethod="pad" gradientUnits="userSpaceOnUse" x1="-229.67999267578125" y1="34.33399963378906" x2="-169.18600463867188" y2="589.9619750976562"><stop offset="0%" stop-color="rgb(145,145,145)"/><stop offset="50%" stop-color="rgb(107,107,107)"/><stop offset="100%" stop-color="rgb(22,22,22)"/></linearGradient><linearGradient id="__lottie_element_17" spreadMethod="pad" gradientUnits="userSpaceOnUse" x1="-229.67999267578125" y1="34.33399963378906" x2="-169.18600463867188" y2="589.9619750976562"><stop offset="0%" stop-color="rgb(145,145,145)"/><stop offset="50%" stop-color="rgb(107,107,107)"/><stop offset="100%" stop-color="rgb(22,22,22)"/></linearGradient><linearGradient id="__lottie_element_18" spreadMethod="pad" gradientUnits="userSpaceOnUse" x1="-229.67999267578125" y1="34.33399963378906" x2="-169.18600463867188" y2="589.9619750976562"><stop offset="0%" stop-color="rgb(145,145,145)"/><stop offset="50%" stop-color="rgb(107,107,107)"/><stop offset="100%" stop-color="rgb(22,22,22)"/></linearGradient><linearGradient id="__lottie_element_19" spreadMethod="pad" gradientUnits="userSpaceOnUse" x1="-229.67999267578125" y1="34.33399963378906" x2="-169.18600463867188" y2="589.9619750976562"><stop offset="0%" stop-color="rgb(145,145,145)"/><stop offset="50%" stop-color="rgb(107,107,107)"/><stop offset="100%" stop-color="rgb(22,22,22)"/></linearGradient><linearGradient id="__lottie_element_20" spreadMethod="pad" gradientUnits="userSpaceOnUse" x1="-229.67999267578125" y1="34.33399963378906" x2="-169.18600463867188" y2="589.9619750976562"><stop offset="0%" stop-color="rgb(145,145,145)"/><stop offset="50%" stop-color="rgb(107,107,107)"/><stop offset="100%" stop-color="rgb(22,22,22)"/></linearGradient><linearGradient id="__lottie_element_21" spreadMethod="pad" gradientUnits="userSpaceOnUse" x1="-229.67999267578125" y1="34.33399963378906" x2="-169.18600463867188" y2="589.9619750976562"><stop offset="0%" stop-color="rgb(145,145,145)"/><stop offset="50%" stop-color="rgb(107,107,107)"/><stop offset="100%" stop-color="rgb(22,22,22)"/></linearGradient><linearGradient id="__lottie_element_22" spreadMethod="pad" gradientUnits="userSpaceOnUse" x1="-229.67999267578125" y1="34.33399963378906" x2="-169.18600463867188" y2="589.9619750976562"><stop offset="0%" stop-color="rgb(145,145,145)"/><stop offset="50%" stop-color="rgb(107,107,107)"/><stop offset="100%" stop-color="rgb(22,22,22)"/></linearGradient><linearGradient id="__lottie_element_23" spreadMethod="pad" gradientUnits="userSpaceOnUse" x1="-229.67999267578125" y1="34.33399963378906" x2="-169.18600463867188" y2="589.9619750976562"><stop offset="0%" stop-color="rgb(145,145,145)"/><stop offset="50%" stop-color="rgb(107,107,107)"/><stop offset="100%" stop-color="rgb(22,22,22)"/></linearGradient><linearGradient id="__lottie_element_24" spreadMethod="pad" gradientUnits="userSpaceOnUse" x1="-229.67999267578125" y1="34.33399963378906" x2="-169.18600463867188" y2="589.9619750976562"><stop offset="0%" stop-color="rgb(145,145,145)"/><stop offset="50%" stop-color="rgb(107,107,107)"/><stop offset="100%" stop-color="rgb(22,22,22)"/></linearGradient><linearGradient id="__lottie_element_25" spreadMethod="pad" gradientUnits="userSpaceOnUse" x1="-229.67999267578125" y1="34.33399963378906" x2="-169.18600463867188" y2="589.9619750976562"><stop offset="0%" stop-color="rgb(145,145,145)"/><stop offset="50%" stop-color="rgb(107,107,107)"/><stop offset="100%" stop-color="rgb(22,22,22)"/></linearGradient><linearGradient id="__lottie_element_26" spreadMethod="pad" gradientUnits="userSpaceOnUse" x1="-229.67999267578125" y1="34.33399963378906" x2="-169.18600463867188" y2="589.9619750976562"><stop offset="0%" stop-color="rgb(145,145,145)"/><stop offset="50%" stop-color="rgb(107,107,107)"/><stop offset="100%" stop-color="rgb(22,22,22)"/></linearGradient><linearGradient id="__lottie_element_27" spreadMethod="pad" gradientUnits="userSpaceOnUse" x1="-229.67999267578125" y1="34.33399963378906" x2="-169.18600463867188" y2="589.9619750976562"><stop offset="0%" stop-color="rgb(145,145,145)"/><stop offset="50%" stop-color="rgb(107,107,107)"/><stop offset="100%" stop-color="rgb(22,22,22)"/></linearGradient><linearGradient id="__lottie_element_28" spreadMethod="pad" gradientUnits="userSpaceOnUse" x1="-229.67999267578125" y1="34.33399963378906" x2="-169.18600463867188" y2="589.9619750976562"><stop offset="0%" stop-color="rgb(145,145,145)"/><stop offset="50%" stop-color="rgb(107,107,107)"/><stop offset="100%" stop-color="rgb(22,22,22)"/></linearGradient><linearGradient id="__lottie_element_29" spreadMethod="pad" gradientUnits="userSpaceOnUse" x1="-229.67999267578125" y1="34.33399963378906" x2="-169.18600463867188" y2="589.9619750976562"><stop offset="0%" stop-color="rgb(145,145,145)"/><stop offset="50%" stop-color="rgb(107,107,107)"/><stop offset="100%" stop-color="rgb(22,22,22)"/></linearGradient><linearGradient id="__lottie_element_30" spreadMethod="pad" gradientUnits="userSpaceOnUse" x1="-229.67999267578125" y1="34.33399963378906" x2="-169.18600463867188" y2="589.9619750976562"><stop offset="0%" stop-color="rgb(145,145,145)"/><stop offset="50%" stop-color="rgb(107,107,107)"/><stop offset="100%" stop-color="rgb(22,22,22)"/></linearGradient><linearGradient id="__lottie_element_31" spreadMethod="pad" gradientUnits="userSpaceOnUse" x1="-229.67999267578125" y1="34.33399963378906" x2="-169.18600463867188" y2="589.9619750976562"><stop offset="0%" stop-color="rgb(145,145,145)"/><stop offset="50%" stop-color="rgb(107,107,107)"/><stop offset="100%" stop-color="rgb(22,22,22)"/></linearGradient><linearGradient id="__lottie_element_32" spreadMethod="pad" gradientUnits="userSpaceOnUse" x1="-229.67999267578125" y1="34.33399963378906" x2="-169.18600463867188" y2="589.9619750976562"><stop offset="0%" stop-color="rgb(145,145,145)"/><stop offset="50%" stop-color="rgb(107,107,107)"/><stop offset="100%" stop-color="rgb(22,22,22)"/></linearGradient><linearGradient id="__lottie_element_33" spreadMethod="pad" gradientUnits="userSpaceOnUse" x1="-229.67999267578125" y1="34.33399963378906" x2="-169.18600463867188" y2="589.9619750976562"><stop offset="0%" stop-color="rgb(145,145,145)"/><stop offset="50%" stop-color="rgb(107,107,107)"/><stop offset="100%" stop-color="rgb(22,22,22)"/></linearGradient><linearGradient id="__lottie_element_34" spreadMethod="pad" gradientUnits="userSpaceOnUse" x1="-229.67999267578125" y1="34.33399963378906" x2="-169.18600463867188" y2="589.9619750976562"><stop offset="0%" stop-color="rgb(145,145,145)"/><stop offset="50%" stop-color="rgb(107,107,107)"/><stop offset="100%" stop-color="rgb(22,22,22)"/></linearGradient><linearGradient id="__lottie_element_35" spreadMethod="pad" gradientUnits="userSpaceOnUse" x1="-229.67999267578125" y1="34.33399963378906" x2="-169.18600463867188" y2="589.9619750976562"><stop offset="0%" stop-color="rgb(145,145,145)"/><stop offset="50%" stop-color="rgb(107,107,107)"/><stop offset="100%" stop-color="rgb(22,22,22)"/></linearGradient><linearGradient id="__lottie_element_36" spreadMethod="pad" gradientUnits="userSpaceOnUse" x1="-229.67999267578125" y1="34.33399963378906" x2="-169.18600463867188" y2="589.9619750976562"><stop offset="0%" stop-color="rgb(145,145,145)"/><stop offset="50%" stop-color="rgb(107,107,107)"/><stop offset="100%" stop-color="rgb(22,22,22)"/></linearGradient></defs><g clip-path="url(#__lottie_element_2)"><g transform="matrix(1.3127140998840332,0.3679986298084259,-0.3679986298084259,1.3127140998840332,2,88)" opacity="1" style="display: block;"><g opacity="1" transform="matrix(2.27716064453125,0.09448578953742981,-0.09448578953742981,2.27716064453125,1542.5550537109375,-1153.4610595703125)"><g opacity="1" transform="matrix(-0.8191521763801575,0.5735763907432556,-0.5735763907432556,-0.8191521763801575,-406,464)"><path stroke="url(#__lottie_element_7)" stroke-linecap="butt" stroke-linejoin="miter" fill-opacity="0" stroke-miterlimit="4" stroke-opacity="1" stroke-width="371" d=" M380.83697509765625,46.760902404785156 C376.42987060546875,82.65393829345703 108.71102142333984,369.74725341796875 73.21283721923828,376.64739990234375 C37.714656829833984,383.54754638671875 -318.0569763183594,217.6485137939453 -335.5889587402344,186.02000427246094 C-353.1209411621094,154.3914794921875 -305.2810363769531,-235.2330780029297 -280.61822509765625,-261.68072509765625 C-255.9553985595703,-288.12835693359375 129.38291931152344,-363.0305480957031 162.15736389160156,-347.7475891113281 C194.93179321289062,-332.464599609375 385.24407958984375,10.8678617477417 380.83697509765625,46.760902404785156z"/></g><g opacity="1" transform="matrix(-0.766044557094574,0.6427875757217407,-0.6427875757217407,-0.766044557094574,-392,448)"><path stroke="url(#__lottie_element_8)" stroke-linecap="butt" stroke-linejoin="miter" fill-opacity="0" stroke-miterlimit="4" stroke-opacity="1" stroke-width="371" d=" M380.83697509765625,46.760902404785156 C376.42987060546875,82.65393829345703 108.71102142333984,369.74725341796875 73.21283721923828,376.64739990234375 C37.714656829833984,383.54754638671875 -318.0569763183594,217.6485137939453 -335.5889587402344,186.02000427246094 C-353.1209411621094,154.3914794921875 -305.2810363769531,-235.2330780029297 -280.61822509765625,-261.68072509765625 C-255.9553985595703,-288.12835693359375 129.38291931152344,-363.0305480957031 162.15736389160156,-347.7475891113281 C194.93179321289062,-332.464599609375 385.24407958984375,10.8678617477417 380.83697509765625,46.760902404785156z"/></g><g opacity="1" transform="matrix(-0.70710688829422,0.7071067690849304,-0.7071067690849304,-0.70710688829422,-378,432)"><path stroke="url(#__lottie_element_9)" stroke-linecap="butt" stroke-linejoin="miter" fill-opacity="0" stroke-miterlimit="4" stroke-opacity="1" stroke-width="371" d=" M380.83697509765625,46.760902404785156 C376.42987060546875,82.65393829345703 108.71102142333984,369.74725341796875 73.21283721923828,376.64739990234375 C37.714656829833984,383.54754638671875 -318.0569763183594,217.6485137939453 -335.5889587402344,186.02000427246094 C-353.1209411621094,154.3914794921875 -305.2810363769531,-235.2330780029297 -280.61822509765625,-261.68072509765625 C-255.9553985595703,-288.12835693359375 129.38291931152344,-363.0305480957031 162.15736389160156,-347.7475891113281 C194.93179321289062,-332.464599609375 385.24407958984375,10.8678617477417 380.83697509765625,46.760902404785156z"/></g><g opacity="1" transform="matrix(-0.6427876949310303,0.7660444378852844,-0.7660444378852844,-0.6427876949310303,-364,416)"><path stroke="url(#__lottie_element_10)" stroke-linecap="butt" stroke-linejoin="miter" fill-opacity="0" stroke-miterlimit="4" stroke-opacity="1" stroke-width="371" d=" M380.83697509765625,46.760902404785156 C376.42987060546875,82.65393829345703 108.71102142333984,369.74725341796875 73.21283721923828,376.64739990234375 C37.714656829833984,383.54754638671875 -318.0569763183594,217.6485137939453 -335.5889587402344,186.02000427246094 C-353.1209411621094,154.3914794921875 -305.2810363769531,-235.2330780029297 -280.61822509765625,-261.68072509765625 C-255.9553985595703,-288.12835693359375 129.38291931152344,-363.0305480957031 162.15736389160156,-347.7475891113281 C194.93179321289062,-332.464599609375 385.24407958984375,10.8678617477417 380.83697509765625,46.760902404785156z"/></g><g opacity="1" transform="matrix(-0.5735765099525452,0.8191520571708679,-0.8191520571708679,-0.5735765099525452,-350,400)"><path stroke="url(#__lottie_element_11)" stroke-linecap="butt" stroke-linejoin="miter" fill-opacity="0" stroke-miterlimit="4" stroke-opacity="1" stroke-width="371" d=" M380.83697509765625,46.760902404785156 C376.42987060546875,82.65393829345703 108.71102142333984,369.74725341796875 73.21283721923828,376.64739990234375 C37.714656829833984,383.54754638671875 -318.0569763183594,217.6485137939453 -335.5889587402344,186.02000427246094 C-353.1209411621094,154.3914794921875 -305.2810363769531,-235.2330780029297 -280.61822509765625,-261.68072509765625 C-255.9553985595703,-288.12835693359375 129.38291931152344,-363.0305480957031 162.15736389160156,-347.7475891113281 C194.93179321289062,-332.464599609375 385.24407958984375,10.8678617477417 380.83697509765625,46.760902404785156z"/></g><g opacity="1" transform="matrix(-0.5000000596046448,0.866025447845459,-0.866025447845459,-0.5000000596046448,-336,384)"><path stroke="url(#__lottie_element_12)" stroke-linecap="butt" stroke-linejoin="miter" fill-opacity="0" stroke-miterlimit="4" stroke-opacity="1" stroke-width="371" d=" M380.83697509765625,46.760902404785156 C376.42987060546875,82.65393829345703 108.71102142333984,369.74725341796875 73.21283721923828,376.64739990234375 C37.714656829833984,383.54754638671875 -318.0569763183594,217.6485137939453 -335.5889587402344,186.02000427246094 C-353.1209411621094,154.3914794921875 -305.2810363769531,-235.2330780029297 -280.61822509765625,-261.68072509765625 C-255.9553985595703,-288.12835693359375 129.38291931152344,-363.0305480957031 162.15736389160156,-347.7475891113281 C194.93179321289062,-332.464599609375 385.24407958984375,10.8678617477417 380.83697509765625,46.760902404785156z"/></g><g opacity="1" transform="matrix(-0.4226182997226715,0.9063078165054321,-0.9063078165054321,-0.4226182997226715,-322,368)"><path stroke="url(#__lottie_element_13)" stroke-linecap="butt" stroke-linejoin="miter" fill-opacity="0" stroke-miterlimit="4" stroke-opacity="1" stroke-width="371" d=" M380.83697509765625,46.760902404785156 C376.42987060546875,82.65393829345703 108.71102142333984,369.74725341796875 73.21283721923828,376.64739990234375 C37.714656829833984,383.54754638671875 -318.0569763183594,217.6485137939453 -335.5889587402344,186.02000427246094 C-353.1209411621094,154.3914794921875 -305.2810363769531,-235.2330780029297 -280.61822509765625,-261.68072509765625 C-255.9553985595703,-288.12835693359375 129.38291931152344,-363.0305480957031 162.15736389160156,-347.7475891113281 C194.93179321289062,-332.464599609375 385.24407958984375,10.8678617477417 380.83697509765625,46.760902404785156z"/></g><g opacity="1" transform="matrix(-0.342020183801651,0.9396926760673523,-0.9396926760673523,-0.342020183801651,-308,352)"><path stroke="url(#__lottie_element_14)" stroke-linecap="butt" stroke-linejoin="miter" fill-opacity="0" stroke-miterlimit="4" stroke-opacity="1" stroke-width="371" d=" M380.83697509765625,46.760902404785156 C376.42987060546875,82.65393829345703 108.71102142333984,369.74725341796875 73.21283721923828,376.64739990234375 C37.714656829833984,383.54754638671875 -318.0569763183594,217.6485137939453 -335.5889587402344,186.02000427246094 C-353.1209411621094,154.3914794921875 -305.2810363769531,-235.2330780029297 -280.61822509765625,-261.68072509765625 C-255.9553985595703,-288.12835693359375 129.38291931152344,-363.0305480957031 162.15736389160156,-347.7475891113281 C194.93179321289062,-332.464599609375 385.24407958984375,10.8678617477417 380.83697509765625,46.760902404785156z"/></g><g opacity="1" transform="matrix(-0.2588190734386444,0.9659258723258972,-0.9659258723258972,-0.2588190734386444,-294,336)"><path stroke="url(#__lottie_element_15)" stroke-linecap="butt" stroke-linejoin="miter" fill-opacity="0" stroke-miterlimit="4" stroke-opacity="1" stroke-width="371" d=" M380.83697509765625,46.760902404785156 C376.42987060546875,82.65393829345703 108.71102142333984,369.74725341796875 73.21283721923828,376.64739990234375 C37.714656829833984,383.54754638671875 -318.0569763183594,217.6485137939453 -335.5889587402344,186.02000427246094 C-353.1209411621094,154.3914794921875 -305.2810363769531,-235.2330780029297 -280.61822509765625,-261.68072509765625 C-255.9553985595703,-288.12835693359375 129.38291931152344,-363.0305480957031 162.15736389160156,-347.7475891113281 C194.93179321289062,-332.464599609375 385.24407958984375,10.8678617477417 380.83697509765625,46.760902404785156z"/></g><g opacity="1" transform="matrix(-0.1736481934785843,0.9848077893257141,-0.9848077893257141,-0.1736481934785843,-280,320)"><path stroke="url(#__lottie_element_16)" stroke-linecap="butt" stroke-linejoin="miter" fill-opacity="0" stroke-miterlimit="4" stroke-opacity="1" stroke-width="371" d=" M380.83697509765625,46.760902404785156 C376.42987060546875,82.65393829345703 108.71102142333984,369.74725341796875 73.21283721923828,376.64739990234375 C37.714656829833984,383.54754638671875 -318.0569763183594,217.6485137939453 -335.5889587402344,186.02000427246094 C-353.1209411621094,154.3914794921875 -305.2810363769531,-235.2330780029297 -280.61822509765625,-261.68072509765625 C-255.9553985595703,-288.12835693359375 129.38291931152344,-363.0305480957031 162.15736389160156,-347.7475891113281 C194.93179321289062,-332.464599609375 385.24407958984375,10.8678617477417 380.83697509765625,46.760902404785156z"/></g><g opacity="1" transform="matrix(-0.08715575188398361,0.9961947202682495,-0.9961947202682495,-0.08715575188398361,-266,304)"><path stroke="url(#__lottie_element_17)" stroke-linecap="butt" stroke-linejoin="miter" fill-opacity="0" stroke-miterlimit="4" stroke-opacity="1" stroke-width="371" d=" M380.83697509765625,46.760902404785156 C376.42987060546875,82.65393829345703 108.71102142333984,369.74725341796875 73.21283721923828,376.64739990234375 C37.714656829833984,383.54754638671875 -318.0569763183594,217.6485137939453 -335.5889587402344,186.02000427246094 C-353.1209411621094,154.3914794921875 -305.2810363769531,-235.2330780029297 -280.61822509765625,-261.68072509765625 C-255.9553985595703,-288.12835693359375 129.38291931152344,-363.0305480957031 162.15736389160156,-347.7475891113281 C194.93179321289062,-332.464599609375 385.24407958984375,10.8678617477417 380.83697509765625,46.760902404785156z"/></g><g opacity="1" transform="matrix(0,1,-1,0,-252,288)"><path stroke="url(#__lottie_element_18)" stroke-linecap="butt" stroke-linejoin="miter" fill-opacity="0" stroke-miterlimit="4" stroke-opacity="1" stroke-width="371" d=" M380.83697509765625,46.760902404785156 C376.42987060546875,82.65393829345703 108.71102142333984,369.74725341796875 73.21283721923828,376.64739990234375 C37.714656829833984,383.54754638671875 -318.0569763183594,217.6485137939453 -335.5889587402344,186.02000427246094 C-353.1209411621094,154.3914794921875 -305.2810363769531,-235.2330780029297 -280.61822509765625,-261.68072509765625 C-255.9553985595703,-288.12835693359375 129.38291931152344,-363.0305480957031 162.15736389160156,-347.7475891113281 C194.93179321289062,-332.464599609375 385.24407958984375,10.8678617477417 380.83697509765625,46.760902404785156z"/></g><g opacity="1" transform="matrix(0.08715573698282242,0.9961947202682495,-0.9961947202682495,0.08715573698282242,-238,272)"><path stroke="url(#__lottie_element_19)" stroke-linecap="butt" stroke-linejoin="miter" fill-opacity="0" stroke-miterlimit="4" stroke-opacity="1" stroke-width="371" d=" M380.83697509765625,46.760902404785156 C376.42987060546875,82.65393829345703 108.71102142333984,369.74725341796875 73.21283721923828,376.64739990234375 C37.714656829833984,383.54754638671875 -318.0569763183594,217.6485137939453 -335.5889587402344,186.02000427246094 C-353.1209411621094,154.3914794921875 -305.2810363769531,-235.2330780029297 -280.61822509765625,-261.68072509765625 C-255.9553985595703,-288.12835693359375 129.38291931152344,-363.0305480957031 162.15736389160156,-347.7475891113281 C194.93179321289062,-332.464599609375 385.24407958984375,10.8678617477417 380.83697509765625,46.760902404785156z"/></g><g opacity="1" transform="matrix(0.1736481785774231,0.9848077893257141,-0.9848077893257141,0.1736481785774231,-224,256)"><path stroke="url(#__lottie_element_20)" stroke-linecap="butt" stroke-linejoin="miter" fill-opacity="0" stroke-miterlimit="4" stroke-opacity="1" stroke-width="371" d=" M380.83697509765625,46.760902404785156 C376.42987060546875,82.65393829345703 108.71102142333984,369.74725341796875 73.21283721923828,376.64739990234375 C37.714656829833984,383.54754638671875 -318.0569763183594,217.6485137939453 -335.5889587402344,186.02000427246094 C-353.1209411621094,154.3914794921875 -305.2810363769531,-235.2330780029297 -280.61822509765625,-261.68072509765625 C-255.9553985595703,-288.12835693359375 129.38291931152344,-363.0305480957031 162.15736389160156,-347.7475891113281 C194.93179321289062,-332.464599609375 385.24407958984375,10.8678617477417 380.83697509765625,46.760902404785156z"/></g><g opacity="1" transform="matrix(0.258819043636322,0.9659258723258972,-0.9659258723258972,0.258819043636322,-210,240)"><path stroke="url(#__lottie_element_21)" stroke-linecap="butt" stroke-linejoin="miter" fill-opacity="0" stroke-miterlimit="4" stroke-opacity="1" stroke-width="371" d=" M380.83697509765625,46.760902404785156 C376.42987060546875,82.65393829345703 108.71102142333984,369.74725341796875 73.21283721923828,376.64739990234375 C37.714656829833984,383.54754638671875 -318.0569763183594,217.6485137939453 -335.5889587402344,186.02000427246094 C-353.1209411621094,154.3914794921875 -305.2810363769531,-235.2330780029297 -280.61822509765625,-261.68072509765625 C-255.9553985595703,-288.12835693359375 129.38291931152344,-363.0305480957031 162.15736389160156,-347.7475891113281 C194.93179321289062,-332.464599609375 385.24407958984375,10.8678617477417 380.83697509765625,46.760902404785156z"/></g><g opacity="1" transform="matrix(0.3420201539993286,0.9396926760673523,-0.9396926760673523,0.3420201539993286,-196,224)"><path stroke="url(#__lottie_element_22)" stroke-linecap="butt" stroke-linejoin="miter" fill-opacity="0" stroke-miterlimit="4" stroke-opacity="1" stroke-width="371" d=" M380.83697509765625,46.760902404785156 C376.42987060546875,82.65393829345703 108.71102142333984,369.74725341796875 73.21283721923828,376.64739990234375 C37.714656829833984,383.54754638671875 -318.0569763183594,217.6485137939453 -335.5889587402344,186.02000427246094 C-353.1209411621094,154.3914794921875 -305.2810363769531,-235.2330780029297 -280.61822509765625,-261.68072509765625 C-255.9553985595703,-288.12835693359375 129.38291931152344,-363.0305480957031 162.15736389160156,-347.7475891113281 C194.93179321289062,-332.464599609375 385.24407958984375,10.8678617477417 380.83697509765625,46.760902404785156z"/></g><g opacity="1" transform="matrix(0.4226182699203491,0.9063078165054321,-0.9063078165054321,0.4226182699203491,-182,208)"><path stroke="url(#__lottie_element_23)" stroke-linecap="butt" stroke-linejoin="miter" fill-opacity="0" stroke-miterlimit="4" stroke-opacity="1" stroke-width="371" d=" M380.83697509765625,46.760902404785156 C376.42987060546875,82.65393829345703 108.71102142333984,369.74725341796875 73.21283721923828,376.64739990234375 C37.714656829833984,383.54754638671875 -318.0569763183594,217.6485137939453 -335.5889587402344,186.02000427246094 C-353.1209411621094,154.3914794921875 -305.2810363769531,-235.2330780029297 -280.61822509765625,-261.68072509765625 C-255.9553985595703,-288.12835693359375 129.38291931152344,-363.0305480957031 162.15736389160156,-347.7475891113281 C194.93179321289062,-332.464599609375 385.24407958984375,10.8678617477417 380.83697509765625,46.760902404785156z"/></g><g opacity="1" transform="matrix(0.5,0.866025447845459,-0.866025447845459,0.5,-168,192)"><path stroke="url(#__lottie_element_24)" stroke-linecap="butt" stroke-linejoin="miter" fill-opacity="0" stroke-miterlimit="4" stroke-opacity="1" stroke-width="371" d=" M380.83697509765625,46.760902404785156 C376.42987060546875,82.65393829345703 108.71102142333984,369.74725341796875 73.21283721923828,376.64739990234375 C37.714656829833984,383.54754638671875 -318.0569763183594,217.6485137939453 -335.5889587402344,186.02000427246094 C-353.1209411621094,154.3914794921875 -305.2810363769531,-235.2330780029297 -280.61822509765625,-261.68072509765625 C-255.9553985595703,-288.12835693359375 129.38291931152344,-363.0305480957031 162.15736389160156,-347.7475891113281 C194.93179321289062,-332.464599609375 385.24407958984375,10.8678617477417 380.83697509765625,46.760902404785156z"/></g><g opacity="1" transform="matrix(0.5735764503479004,0.8191521167755127,-0.8191521167755127,0.5735764503479004,-154,176)"><path stroke="url(#__lottie_element_25)" stroke-linecap="butt" stroke-linejoin="miter" fill-opacity="0" stroke-miterlimit="4" stroke-opacity="1" stroke-width="371" d=" M380.83697509765625,46.760902404785156 C376.42987060546875,82.65393829345703 108.71102142333984,369.74725341796875 73.21283721923828,376.64739990234375 C37.714656829833984,383.54754638671875 -318.0569763183594,217.6485137939453 -335.5889587402344,186.02000427246094 C-353.1209411621094,154.3914794921875 -305.2810363769531,-235.2330780029297 -280.61822509765625,-261.68072509765625 C-255.9553985595703,-288.12835693359375 129.38291931152344,-363.0305480957031 162.15736389160156,-347.7475891113281 C194.93179321289062,-332.464599609375 385.24407958984375,10.8678617477417 380.83697509765625,46.760902404785156z"/></g><g opacity="1" transform="matrix(0.6427876353263855,0.7660444974899292,-0.7660444974899292,0.6427876353263855,-140,160)"><path stroke="url(#__lottie_element_26)" stroke-linecap="butt" stroke-linejoin="miter" fill-opacity="0" stroke-miterlimit="4" stroke-opacity="1" stroke-width="371" d=" M380.83697509765625,46.760902404785156 C376.42987060546875,82.65393829345703 108.71102142333984,369.74725341796875 73.21283721923828,376.64739990234375 C37.714656829833984,383.54754638671875 -318.0569763183594,217.6485137939453 -335.5889587402344,186.02000427246094 C-353.1209411621094,154.3914794921875 -305.2810363769531,-235.2330780029297 -280.61822509765625,-261.68072509765625 C-255.9553985595703,-288.12835693359375 129.38291931152344,-363.0305480957031 162.15736389160156,-347.7475891113281 C194.93179321289062,-332.464599609375 385.24407958984375,10.8678617477417 380.83697509765625,46.760902404785156z"/></g><g opacity="1" transform="matrix(0.7071068286895752,0.7071068286895752,-0.7071068286895752,0.7071068286895752,-126,144)"><path stroke="url(#__lottie_element_27)" stroke-linecap="butt" stroke-linejoin="miter" fill-opacity="0" stroke-miterlimit="4" stroke-opacity="1" stroke-width="371" d=" M380.83697509765625,46.760902404785156 C376.42987060546875,82.65393829345703 108.71102142333984,369.74725341796875 73.21283721923828,376.64739990234375 C37.714656829833984,383.54754638671875 -318.0569763183594,217.6485137939453 -335.5889587402344,186.02000427246094 C-353.1209411621094,154.3914794921875 -305.2810363769531,-235.2330780029297 -280.61822509765625,-261.68072509765625 C-255.9553985595703,-288.12835693359375 129.38291931152344,-363.0305480957031 162.15736389160156,-347.7475891113281 C194.93179321289062,-332.464599609375 385.24407958984375,10.8678617477417 380.83697509765625,46.760902404785156z"/></g><g opacity="1" transform="matrix(0.7660444974899292,0.6427876353263855,-0.6427876353263855,0.7660444974899292,-112,128)"><path stroke="url(#__lottie_element_28)" stroke-linecap="butt" stroke-linejoin="miter" fill-opacity="0" stroke-miterlimit="4" stroke-opacity="1" stroke-width="371" d=" M380.83697509765625,46.760902404785156 C376.42987060546875,82.65393829345703 108.71102142333984,369.74725341796875 73.21283721923828,376.64739990234375 C37.714656829833984,383.54754638671875 -318.0569763183594,217.6485137939453 -335.5889587402344,186.02000427246094 C-353.1209411621094,154.3914794921875 -305.2810363769531,-235.2330780029297 -280.61822509765625,-261.68072509765625 C-255.9553985595703,-288.12835693359375 129.38291931152344,-363.0305480957031 162.15736389160156,-347.7475891113281 C194.93179321289062,-332.464599609375 385.24407958984375,10.8678617477417 380.83697509765625,46.760902404785156z"/></g><g opacity="1" transform="matrix(0.8191521167755127,0.5735764503479004,-0.5735764503479004,0.8191521167755127,-98,112)"><path stroke="url(#__lottie_element_29)" stroke-linecap="butt" stroke-linejoin="miter" fill-opacity="0" stroke-miterlimit="4" stroke-opacity="1" stroke-width="371" d=" M380.83697509765625,46.760902404785156 C376.42987060546875,82.65393829345703 108.71102142333984,369.74725341796875 73.21283721923828,376.64739990234375 C37.714656829833984,383.54754638671875 -318.0569763183594,217.6485137939453 -335.5889587402344,186.02000427246094 C-353.1209411621094,154.3914794921875 -305.2810363769531,-235.2330780029297 -280.61822509765625,-261.68072509765625 C-255.9553985595703,-288.12835693359375 129.38291931152344,-363.0305480957031 162.15736389160156,-347.7475891113281 C194.93179321289062,-332.464599609375 385.24407958984375,10.8678617477417 380.83697509765625,46.760902404785156z"/></g><g opacity="1" transform="matrix(0.866025447845459,0.5,-0.5,0.866025447845459,-84,96)"><path stroke="url(#__lottie_element_30)" stroke-linecap="butt" stroke-linejoin="miter" fill-opacity="0" stroke-miterlimit="4" stroke-opacity="1" stroke-width="371" d=" M380.83697509765625,46.760902404785156 C376.42987060546875,82.65393829345703 108.71102142333984,369.74725341796875 73.21283721923828,376.64739990234375 C37.714656829833984,383.54754638671875 -318.0569763183594,217.6485137939453 -335.5889587402344,186.02000427246094 C-353.1209411621094,154.3914794921875 -305.2810363769531,-235.2330780029297 -280.61822509765625,-261.68072509765625 C-255.9553985595703,-288.12835693359375 129.38291931152344,-363.0305480957031 162.15736389160156,-347.7475891113281 C194.93179321289062,-332.464599609375 385.24407958984375,10.8678617477417 380.83697509765625,46.760902404785156z"/></g><g opacity="1" transform="matrix(0.9063078165054321,0.4226182699203491,-0.4226182699203491,0.9063078165054321,-70,80)"><path stroke="url(#__lottie_element_31)" stroke-linecap="butt" stroke-linejoin="miter" fill-opacity="0" stroke-miterlimit="4" stroke-opacity="1" stroke-width="371" d=" M380.83697509765625,46.760902404785156 C376.42987060546875,82.65393829345703 108.71102142333984,369.74725341796875 73.21283721923828,376.64739990234375 C37.714656829833984,383.54754638671875 -318.0569763183594,217.6485137939453 -335.5889587402344,186.02000427246094 C-353.1209411621094,154.3914794921875 -305.2810363769531,-235.2330780029297 -280.61822509765625,-261.68072509765625 C-255.9553985595703,-288.12835693359375 129.38291931152344,-363.0305480957031 162.15736389160156,-347.7475891113281 C194.93179321289062,-332.464599609375 385.24407958984375,10.8678617477417 380.83697509765625,46.760902404785156z"/></g><g opacity="1" transform="matrix(0.9396926760673523,0.3420201539993286,-0.3420201539993286,0.9396926760673523,-56,64)"><path stroke="url(#__lottie_element_32)" stroke-linecap="butt" stroke-linejoin="miter" fill-opacity="0" stroke-miterlimit="4" stroke-opacity="1" stroke-width="371" d=" M380.83697509765625,46.760902404785156 C376.42987060546875,82.65393829345703 108.71102142333984,369.74725341796875 73.21283721923828,376.64739990234375 C37.714656829833984,383.54754638671875 -318.0569763183594,217.6485137939453 -335.5889587402344,186.02000427246094 C-353.1209411621094,154.3914794921875 -305.2810363769531,-235.2330780029297 -280.61822509765625,-261.68072509765625 C-255.9553985595703,-288.12835693359375 129.38291931152344,-363.0305480957031 162.15736389160156,-347.7475891113281 C194.93179321289062,-332.464599609375 385.24407958984375,10.8678617477417 380.83697509765625,46.760902404785156z"/></g><g opacity="1" transform="matrix(0.9659258723258972,0.258819043636322,-0.258819043636322,0.9659258723258972,-42,48)"><path stroke="url(#__lottie_element_33)" stroke-linecap="butt" stroke-linejoin="miter" fill-opacity="0" stroke-miterlimit="4" stroke-opacity="1" stroke-width="371" d=" M380.83697509765625,46.760902404785156 C376.42987060546875,82.65393829345703 108.71102142333984,369.74725341796875 73.21283721923828,376.64739990234375 C37.714656829833984,383.54754638671875 -318.0569763183594,217.6485137939453 -335.5889587402344,186.02000427246094 C-353.1209411621094,154.3914794921875 -305.2810363769531,-235.2330780029297 -280.61822509765625,-261.68072509765625 C-255.9553985595703,-288.12835693359375 129.38291931152344,-363.0305480957031 162.15736389160156,-347.7475891113281 C194.93179321289062,-332.464599609375 385.24407958984375,10.8678617477417 380.83697509765625,46.760902404785156z"/></g><g opacity="1" transform="matrix(0.9848077893257141,0.1736481785774231,-0.1736481785774231,0.9848077893257141,-28,32)"><path stroke="url(#__lottie_element_34)" stroke-linecap="butt" stroke-linejoin="miter" fill-opacity="0" stroke-miterlimit="4" stroke-opacity="1" stroke-width="371" d=" M380.83697509765625,46.760902404785156 C376.42987060546875,82.65393829345703 108.71102142333984,369.74725341796875 73.21283721923828,376.64739990234375 C37.714656829833984,383.54754638671875 -318.0569763183594,217.6485137939453 -335.5889587402344,186.02000427246094 C-353.1209411621094,154.3914794921875 -305.2810363769531,-235.2330780029297 -280.61822509765625,-261.68072509765625 C-255.9553985595703,-288.12835693359375 129.38291931152344,-363.0305480957031 162.15736389160156,-347.7475891113281 C194.93179321289062,-332.464599609375 385.24407958984375,10.8678617477417 380.83697509765625,46.760902404785156z"/></g><g opacity="1" transform="matrix(0.9961947202682495,0.08715574443340302,-0.08715574443340302,0.9961947202682495,-14,16)"><path stroke="url(#__lottie_element_35)" stroke-linecap="butt" stroke-linejoin="miter" fill-opacity="0" stroke-miterlimit="4" stroke-opacity="1" stroke-width="371" d=" M380.83697509765625,46.760902404785156 C376.42987060546875,82.65393829345703 108.71102142333984,369.74725341796875 73.21283721923828,376.64739990234375 C37.714656829833984,383.54754638671875 -318.0569763183594,217.6485137939453 -335.5889587402344,186.02000427246094 C-353.1209411621094,154.3914794921875 -305.2810363769531,-235.2330780029297 -280.61822509765625,-261.68072509765625 C-255.9553985595703,-288.12835693359375 129.38291931152344,-363.0305480957031 162.15736389160156,-347.7475891113281 C194.93179321289062,-332.464599609375 385.24407958984375,10.8678617477417 380.83697509765625,46.760902404785156z"/></g><g opacity="1" transform="matrix(1,0,0,1,0,0)"><path stroke="url(#__lottie_element_36)" stroke-linecap="butt" stroke-linejoin="miter" fill-opacity="0" stroke-miterlimit="4" stroke-opacity="1" stroke-width="371" d=" M380.83697509765625,46.760902404785156 C376.42987060546875,82.65393829345703 108.71102142333984,369.74725341796875 73.21283721923828,376.64739990234375 C37.714656829833984,383.54754638671875 -318.0569763183594,217.6485137939453 -335.5889587402344,186.02000427246094 C-353.1209411621094,154.3914794921875 -305.2810363769531,-235.2330780029297 -280.61822509765625,-261.68072509765625 C-255.9553985595703,-288.12835693359375 129.38291931152344,-363.0305480957031 162.15736389160156,-347.7475891113281 C194.93179321289062,-332.464599609375 385.24407958984375,10.8678617477417 380.83697509765625,46.760902404785156z"/></g></g></g></g></svg>
